<svg xmlns="http://www.w3.org/2000/svg" xmlns:xlink="http://www.w3.org/1999/xlink"  zoomAndPan="magnify" viewBox="280 570 970 320"  preserveAspectRatio="xMidYMid meet" version="1.0"><defs><g/><clipPath id="2f421af5d5"><path d="M 1163.425781 700.496094 L 1228.574219 700.496094 L 1228.574219 836.003906 L 1163.425781 836.003906 Z M 1163.425781 700.496094 " clip-rule="nonzero"/></clipPath><clipPath id="fc241869be"><path d="M 0.425781 0.496094 L 65.574219 0.496094 L 65.574219 136 L 0.425781 136 Z M 0.425781 0.496094 " clip-rule="nonzero"/></clipPath><clipPath id="a8d0e690ba"><rect x="0" width="66" y="0" height="137"/></clipPath><clipPath id="fcb58bdef9"><path d="M 0.359375 0.960938 L 714.601562 0.960938 L 714.601562 217.199219 L 0.359375 217.199219 Z M 0.359375 0.960938 " clip-rule="nonzero"/></clipPath><clipPath id="f4a96212a2"><rect x="0" width="715" y="0" height="218"/></clipPath><clipPath id="901589bcee"><rect x="0" width="715" y="0" height="218"/></clipPath><clipPath id="920bc3f20a"><path d="M 1033.378906 700.648438 L 1098.523438 700.648438 L 1098.523438 836.15625 L 1033.378906 836.15625 Z M 1033.378906 700.648438 " clip-rule="nonzero"/></clipPath><clipPath id="61ad11975c"><path d="M 0.378906 0.648438 L 65.523438 0.648438 L 65.523438 136.15625 L 0.378906 136.15625 Z M 0.378906 0.648438 " clip-rule="nonzero"/></clipPath><clipPath id="84f3d879fe"><rect x="0" width="66" y="0" height="137"/></clipPath><clipPath id="60e81b27df"><path d="M 1032.65625 580.140625 L 1229.15625 580.140625 L 1229.15625 787 L 1032.65625 787 Z M 1032.65625 580.140625 " clip-rule="nonzero"/></clipPath><clipPath id="cb7e81466b"><path d="M 1032.65625 580.140625 L 1229.15625 580.140625 L 1229.15625 787 L 1032.65625 787 Z M 1032.65625 580.140625 " clip-rule="nonzero"/></clipPath></defs><g clip-path="url(#2f421af5d5)"><g transform="matrix(1, 0, 0, 1, 1163, 700)"><g clip-path="url(#a8d0e690ba)"><g clip-path="url(#fc241869be)"><path fill="#1A1A1A" d="M 0.425781 0.496094 L 65.574219 0.496094 L 65.574219 135.878906 L 0.425781 135.878906 Z M 0.425781 0.496094 " fill-opacity="1" fill-rule="nonzero"/></g></g></g></g><g transform="matrix(1, 0, 0, 1, 297, 660)"><g clip-path="url(#901589bcee)"><g clip-path="url(#fcb58bdef9)"><g transform="matrix(1, 0, 0, 1, 0, 0.000000000000113687)"><g clip-path="url(#f4a96212a2)"><g fill="#1A1A1A" fill-opacity="1"><g transform="translate(0.500278, 172.171944)"><g><path d="M 178.0625 -148.953125 L 178.0625 0 L 159.484375 0 L 159.484375 -135.0625 L 109.296875 0 L 84.21875 0 L 33.828125 -135.0625 L 33.828125 0 L 15.234375 0 L 15.234375 -148.953125 L 47.703125 -148.953125 L 96.984375 -16.796875 L 146.03125 -148.953125 Z M 178.0625 -148.953125 "/></g></g></g><g fill="#1A1A1A" fill-opacity="1"><g transform="translate(181.465306, 172.171944)"><g><path d="M 129.90625 0 L 115.359375 -38.078125 L 41.4375 -38.078125 L 26.875 0 L 8.28125 0 L 64.734375 -148.953125 L 92.28125 -148.953125 L 148.71875 0 Z M 47.03125 -53.078125 L 109.75 -53.078125 L 78.390625 -135.515625 Z M 47.03125 -53.078125 "/></g></g></g><g fill="#1A1A1A" fill-opacity="1"><g transform="translate(325.699474, 172.171944)"><g><path d="M 132.828125 -148.953125 L 132.828125 -133.9375 L 79.515625 -133.9375 L 79.515625 0.21875 L 61.140625 0.21875 L 61.140625 -133.9375 L 7.390625 -133.9375 L 7.390625 -148.953125 Z M 132.828125 -148.953125 "/></g></g></g><g fill="#1A1A1A" fill-opacity="1"><g transform="translate(453.807868, 172.171944)"><g><path d="M 96.53125 -133.9375 L 64.953125 -133.9375 L 64.953125 -15 L 96.53125 -15 L 96.53125 0 L 15 0 L 15 -15 L 46.59375 -15 L 46.59375 -133.9375 L 15 -133.9375 L 15 -148.953125 L 96.53125 -148.953125 Z M 96.53125 -133.9375 "/></g></g></g><g fill="#1A1A1A" fill-opacity="1"><g transform="translate(553.024328, 172.171944)"><g><path d="M 86.6875 3.8125 C 69.65625 3.8125 55.648438 0.414062 44.671875 -6.375 C 33.703125 -13.175781 25.566406 -22.472656 20.265625 -34.265625 C 14.960938 -46.066406 12.3125 -59.507812 12.3125 -74.59375 C 12.3125 -89.519531 15 -102.878906 20.375 -114.671875 C 25.757812 -126.472656 33.972656 -135.804688 45.015625 -142.671875 C 56.066406 -149.546875 70.101562 -152.984375 87.125 -152.984375 C 110.125 -152.984375 127.144531 -147.679688 138.1875 -137.078125 C 149.238281 -126.472656 155.664062 -111.914062 157.46875 -93.40625 L 138.640625 -93.40625 C 137.148438 -108.039062 132.148438 -119.050781 123.640625 -126.4375 C 115.128906 -133.832031 102.8125 -137.53125 86.6875 -137.53125 C 68.164062 -137.53125 54.390625 -132.265625 45.359375 -121.734375 C 36.328125 -111.203125 31.8125 -95.488281 31.8125 -74.59375 C 31.8125 -53.832031 36.25 -38.148438 45.125 -27.546875 C 54.007812 -16.941406 67.710938 -11.640625 86.234375 -11.640625 C 103.109375 -11.640625 115.875 -15.820312 124.53125 -24.1875 C 133.195312 -32.550781 138.050781 -44.273438 139.09375 -59.359375 L 158.140625 -59.359375 C 157.390625 -46.816406 154.398438 -35.800781 149.171875 -26.3125 C 143.941406 -16.832031 136.210938 -9.441406 125.984375 -4.140625 C 115.753906 1.160156 102.65625 3.8125 86.6875 3.8125 Z M 86.6875 3.8125 "/></g></g></g></g></g></g></g></g><g clip-path="url(#920bc3f20a)"><g transform="matrix(1, 0, 0, 1, 1033, 700)"><g clip-path="url(#84f3d879fe)"><g clip-path="url(#61ad11975c)"><path fill="#1A1A1A" d="M 0.378906 0.648438 L 65.523438 0.648438 L 65.523438 136.027344 L 0.378906 136.027344 Z M 0.378906 0.648438 " fill-opacity="1" fill-rule="nonzero"/></g></g></g></g><g clip-path="url(#60e81b27df)"><path fill="#dc6b01" d="M 1228.601562 628.960938 C 1229.011719 627.617188 1228.628906 626.128906 1226.949219 625.335938 C 1195.570312 610.503906 1164.195312 595.675781 1132.820312 580.84375 C 1132.160156 580.53125 1131.515625 580.4375 1130.914062 580.488281 C 1130.25 580.382812 1129.527344 580.464844 1128.785156 580.8125 C 1097.886719 595.304688 1066.984375 609.792969 1036.082031 624.28125 C 1034.347656 624.308594 1032.636719 625.429688 1032.65625 627.667969 C 1032.894531 662.371094 1033.136719 697.070312 1033.375 731.773438 C 1033.382812 732.765625 1033.722656 733.539062 1034.257812 734.097656 C 1034.351562 735.046875 1034.878906 735.949219 1035.992188 736.546875 C 1066.621094 752.867188 1097.242188 769.183594 1127.871094 785.503906 C 1128.246094 785.703125 1128.613281 785.828125 1128.976562 785.894531 C 1129.917969 786.441406 1131.105469 786.582031 1132.335938 785.953125 C 1163.28125 770.253906 1194.230469 754.550781 1225.175781 738.847656 C 1225.527344 738.667969 1225.820312 738.460938 1226.0625 738.226562 C 1227.371094 737.84375 1228.449219 736.769531 1228.460938 735 C 1228.691406 700.300781 1228.917969 665.601562 1229.144531 630.898438 C 1229.152344 630.113281 1228.945312 629.46875 1228.601562 628.960938 Z M 1130.007812 712.117188 C 1112.359375 712.117188 1098 697.757812 1098 680.109375 C 1098 662.460938 1112.359375 648.101562 1130.007812 648.101562 C 1147.652344 648.101562 1162.011719 662.460938 1162.011719 680.109375 C 1162.011719 697.757812 1147.652344 712.117188 1130.007812 712.117188 Z M 1130.007812 712.117188 " fill-opacity="1" fill-rule="nonzero"/></g><path fill="#dc6b01" d="M 1166.039062 665.128906 C 1166.023438 665.085938 1166.007812 665.046875 1165.988281 665.007812 L 1166.046875 665.042969 C 1166.046875 665.042969 1166.042969 665.074219 1166.039062 665.128906 Z M 1130.105469 635.207031 C 1105.472656 635.207031 1085.4375 655.246094 1085.4375 679.875 C 1085.4375 695.15625 1093.152344 708.671875 1104.894531 716.726562 C 1106.46875 715.230469 1107.839844 713.941406 1108.914062 712.925781 C 1098.128906 705.972656 1090.976562 693.859375 1090.976562 680.105469 C 1090.976562 658.585938 1108.484375 641.082031 1130 641.082031 C 1144.011719 641.082031 1156.3125 648.5 1163.199219 659.613281 L 1167.433594 655.375 C 1159.445312 643.234375 1145.699219 635.207031 1130.105469 635.207031 Z M 1099.71875 721.660156 C 1086.820312 712.253906 1078.417969 697.03125 1078.417969 679.878906 C 1078.417969 651.378906 1101.605469 628.191406 1130.105469 628.191406 C 1147.628906 628.191406 1163.140625 636.957031 1172.488281 650.335938 L 1201.6875 621.136719 C 1178.046875 609.960938 1154.40625 598.789062 1130.761719 587.613281 C 1117.496094 593.832031 1104.234375 600.050781 1090.96875 606.269531 L 1039.960938 669.183594 C 1040.105469 689.769531 1040.246094 710.351562 1040.386719 730.9375 C 1051.265625 736.734375 1062.148438 742.53125 1073.027344 748.328125 C 1077.074219 743.488281 1089.964844 730.96875 1099.71875 721.660156 Z M 1099.71875 721.660156 " fill-opacity="1" fill-rule="nonzero"/><path fill="#dc6b01" d="M 1163.203125 659.617188 L 1167.4375 655.382812 C 1172.070312 662.421875 1174.773438 670.839844 1174.773438 679.878906 C 1174.773438 704.511719 1154.734375 724.546875 1130.105469 724.546875 C 1120.761719 724.546875 1112.074219 721.660156 1104.894531 716.730469 C 1106.46875 715.238281 1107.839844 713.945312 1108.914062 712.929688 C 1115 716.851562 1122.238281 719.132812 1130.007812 719.132812 C 1151.527344 719.132812 1169.03125 701.625 1169.03125 680.109375 C 1169.03125 674.804688 1167.964844 669.746094 1166.039062 665.128906 C 1166.042969 665.074219 1166.046875 665.042969 1166.046875 665.042969 L 1165.988281 665.007812 C 1165.199219 663.132812 1164.265625 661.332031 1163.203125 659.617188 Z M 1172.492188 650.324219 C 1178.355469 658.707031 1181.796875 668.894531 1181.796875 679.875 C 1181.796875 708.375 1158.609375 731.5625 1130.109375 731.5625 C 1118.757812 731.5625 1108.257812 727.882812 1099.71875 721.65625 C 1089.96875 730.96875 1077.074219 743.480469 1073.027344 748.328125 C 1092.210938 758.546875 1111.390625 768.769531 1130.574219 778.988281 C 1160.867188 763.621094 1191.164062 748.25 1221.457031 732.875 C 1221.683594 698.878906 1221.90625 664.890625 1222.128906 630.894531 C 1222.128906 630.863281 1222.132812 630.828125 1222.132812 630.789062 C 1215.320312 627.570312 1208.507812 624.347656 1201.6875 621.128906 Z M 1039.691406 630.308594 C 1039.777344 643.269531 1039.871094 656.226562 1039.957031 669.183594 L 1090.96875 606.265625 C 1073.878906 614.28125 1056.785156 622.296875 1039.691406 630.308594 Z M 1039.691406 630.308594 " fill-opacity="1" fill-rule="nonzero"/><g clip-path="url(#cb7e81466b)"><path fill="#dc6b01" d="M 1228.601562 628.960938 C 1229.011719 627.617188 1228.628906 626.128906 1226.949219 625.335938 C 1195.570312 610.503906 1164.195312 595.675781 1132.820312 580.84375 C 1132.160156 580.53125 1131.515625 580.4375 1130.914062 580.488281 C 1130.25 580.382812 1129.527344 580.464844 1128.785156 580.8125 C 1097.886719 595.304688 1066.984375 609.792969 1036.082031 624.28125 C 1034.347656 624.308594 1032.636719 625.429688 1032.65625 627.667969 C 1032.894531 662.371094 1033.136719 697.070312 1033.375 731.773438 C 1033.382812 732.765625 1033.722656 733.539062 1034.257812 734.097656 C 1034.351562 735.046875 1034.878906 735.949219 1035.992188 736.546875 C 1066.621094 752.867188 1097.242188 769.183594 1127.871094 785.503906 C 1128.246094 785.703125 1128.613281 785.828125 1128.976562 785.894531 C 1129.917969 786.441406 1131.105469 786.582031 1132.335938 785.953125 C 1163.28125 770.253906 1194.230469 754.550781 1225.175781 738.847656 C 1225.527344 738.667969 1225.820312 738.460938 1226.0625 738.226562 C 1227.371094 737.84375 1228.449219 736.769531 1228.460938 735 C 1228.691406 700.300781 1228.917969 665.601562 1229.144531 630.898438 C 1229.152344 630.113281 1228.945312 629.46875 1228.601562 628.960938 Z M 1222.128906 630.894531 C 1221.90625 664.890625 1221.683594 698.878906 1221.457031 732.875 C 1191.164062 748.246094 1160.867188 763.613281 1130.574219 778.988281 C 1111.394531 768.769531 1092.214844 758.546875 1073.027344 748.328125 C 1062.148438 742.53125 1051.265625 736.734375 1040.386719 730.9375 C 1040.246094 710.351562 1040.105469 689.769531 1039.960938 669.183594 C 1039.875 656.226562 1039.78125 643.269531 1039.695312 630.308594 C 1056.785156 622.296875 1073.882812 614.28125 1090.972656 606.265625 C 1104.238281 600.046875 1117.5 593.828125 1130.765625 587.609375 C 1154.410156 598.785156 1178.050781 609.957031 1201.691406 621.132812 C 1208.507812 624.351562 1215.320312 627.574219 1222.140625 630.792969 C 1222.132812 630.828125 1222.128906 630.863281 1222.128906 630.894531 Z M 1130.105469 628.1875 C 1101.605469 628.1875 1078.417969 651.375 1078.417969 679.875 C 1078.417969 697.023438 1086.816406 712.25 1099.71875 721.65625 C 1108.253906 727.882812 1118.757812 731.5625 1130.109375 731.5625 C 1158.609375 731.5625 1181.796875 708.375 1181.796875 679.875 C 1181.796875 668.894531 1178.355469 658.707031 1172.492188 650.324219 C 1163.140625 636.953125 1147.628906 628.1875 1130.105469 628.1875 Z M 1174.78125 679.875 C 1174.78125 704.507812 1154.738281 724.542969 1130.109375 724.542969 C 1120.765625 724.542969 1112.078125 721.65625 1104.898438 716.726562 C 1093.15625 708.667969 1085.441406 695.15625 1085.441406 679.875 C 1085.441406 655.242188 1105.480469 635.207031 1130.109375 635.207031 C 1145.703125 635.207031 1159.449219 643.234375 1167.441406 655.375 C 1172.078125 662.417969 1174.78125 670.839844 1174.78125 679.875 Z M 1130.007812 719.132812 C 1151.527344 719.132812 1169.03125 701.625 1169.03125 680.109375 C 1169.03125 674.804688 1167.964844 669.746094 1166.039062 665.128906 C 1166.023438 665.085938 1166.007812 665.046875 1165.988281 665.007812 C 1165.199219 663.132812 1164.265625 661.332031 1163.203125 659.617188 C 1156.316406 648.503906 1144.011719 641.085938 1130.007812 641.085938 C 1108.484375 641.085938 1090.980469 658.589844 1090.980469 680.109375 C 1090.980469 693.863281 1098.132812 705.976562 1108.917969 712.929688 C 1115 716.851562 1122.238281 719.132812 1130.007812 719.132812 Z M 1162.011719 680.109375 C 1162.011719 697.757812 1147.652344 712.117188 1130.007812 712.117188 C 1112.359375 712.117188 1098 697.757812 1098 680.109375 C 1098 662.460938 1112.359375 648.101562 1130.007812 648.101562 C 1147.652344 648.101562 1162.011719 662.457031 1162.011719 680.109375 Z M 1162.011719 680.109375 " fill-opacity="1" fill-rule="nonzero"/></g></svg>